<svg xmlns="http://www.w3.org/2000/svg" version="1.1" xmlns:xlink="http://www.w3.org/1999/xlink" width="1500" height="227" viewBox="0 0 1500 227"><svg xml:space="preserve" width="1500" height="227" data-version="2" data-id="lg_nNXcXraamUA4dJ4fSk" viewBox="0 0 550 227" x="0" y="0"><rect width="100%" height="100%" fill="transparent"></rect><path fill="#fff" d="M118.8 91.61q0 5.67-7.08 5.67-6.96 0-6.96-5.67V14.56H84.11q-4.25 0-4.49-6.02 0-5.9 4.49-5.9h55.34q4.48 0 4.25 5.9 0 6.02-4.25 6.02H118.8Z"></path><rect width="64.16" height="94.64" x="-32.08" y="-47.32" fill="none" rx="0" ry="0" transform="translate(112.2 50.46)"></rect><path fill="#fff" d="M185.23 14.21 159.39 93.5v-.12q-.71 1.77-1.95 2.89-1.24 1.13-3.01 1.13-.94 0-1.82-.18-.89-.18-1.83-.41h.11q-6.72-2.13-4.95-7.56l26.9-81.77q.59-1.89 2.07-3.19 1.47-1.29 3.48-1.53 2-.35 3.89-.53 1.89-.18 2.95-.18 1.06 0 2.95.18 1.89.18 3.9.41 1.65.24 3.24 1.77 1.59 1.54 2.42 3.07 6.61 20.3 13.39 40.89 6.79 20.59 13.4 40.88 1.65 5.43-4.96 7.56-.94.23-1.71.41-.77.18-1.71.18-1.65 0-3.01-1.13-1.36-1.12-1.95-2.89v.12Zm8.85 53.8q0 3.78-2.65 6.43-2.66 2.66-6.43 2.66-3.78 0-6.38-2.66-2.59-2.65-2.59-6.43 0-3.77 2.59-6.43 2.6-2.65 6.38-2.65 3.77 0 6.43 2.65 2.65 2.66 2.65 6.43"></path><rect width="80.5" height="95.35" x="-40.25" y="-47.67" fill="none" rx="0" ry="0" transform="translate(185.7 50.23)"></rect><path fill="#fff" d="M287.42 7.72q0-5.67 6.96-5.67t6.96 5.67v81.42q0 4.13-4.36 6.01h.12q-1.89.83-4.02 1.3-2.12.47-4.13.47-1.53 0-3.18-.29-1.65-.3-3.13-.95-1.47-.64-2.71-1.77-1.24-1.12-1.95-2.77L252.37 27.3l-3.18.36v63.72q0 5.66-7.08 5.66-6.96 0-6.96-5.66v-81.3q0-4.84 4.24-6.49 3.9-1.54 8.26-1.54 3.07 0 6.2 1.24 3.13 1.24 4.78 4.66l25.49 63.96 3.3-.36Z"></path><rect width="66.19" height="94.99" x="-33.09" y="-47.49" fill="none" rx="0" ry="0" transform="translate(268.75 50.05)"></rect><path fill="#fff" d="M367.42 53.74q0-5.79 7.08-5.79 6.97 0 6.97 5.55v23.95q0 9.56-6.38 14.28-3.06 2.24-6.31 3.48-3.24 1.24-6.31 1.24h-24.55q-3.06 0-6.31-1.24-3.24-1.24-6.31-3.48-3.07-2.36-4.72-5.84t-1.65-8.44V21.4q0-4.83 1.71-8.37 1.71-3.54 4.66-5.79h-.12q3.07-2 6.37-3.3 3.31-1.3 6.37-1.3h23.37q3.07 0 6.37 1.3 3.3 1.3 6.37 3.3h-.12q6.26 4.61 6.26 14.16v8.15q0 5.66-6.96 5.66-6.97 0-6.97-5.66v-7.08q0-2.95-1.77-5.43-1.77-2.48-6.13-2.48h-17.35q-4.48 0-6.25 2.48-1.77 2.48-1.77 5.43v54.04q0 1.53.41 2.95.41 1.42 1.36 2.54.94 1.12 2.48 1.83 1.53.7 3.77.7h18.53q4.36 0 6.13-2.47 1.77-2.48 1.77-5.55Zm-5.54-1.3q0 2-.77 3.83t-2.12 3.13q-1.36 1.3-3.13 2.06-1.77.77-3.89.77-4.02 0-6.85-2.83t-2.83-6.96q0-4.01 2.83-6.85 2.83-2.83 6.85-2.83 2.12 0 3.89.77t3.13 2.06q1.35 1.3 2.12 3.07.77 1.77.77 3.78"></path><rect width="62.54" height="93.81" x="-31.27" y="-46.91" fill="none" rx="0" ry="0" transform="translate(350.7 50.05)"></rect><path fill="#fff" d="M430.67 14.21 404.83 93.5v-.12q-.71 1.77-1.95 2.89-1.24 1.13-3.01 1.13-.94 0-1.82-.18-.89-.18-1.83-.41h.11q-6.72-2.13-4.95-7.56l26.9-81.77q.59-1.89 2.07-3.19 1.47-1.29 3.48-1.53 2-.35 3.89-.53 1.89-.18 2.95-.18 1.06 0 2.95.18 1.89.18 3.9.41 1.65.24 3.24 1.77 1.59 1.54 2.42 3.07 6.61 20.3 13.39 40.89 6.79 20.59 13.4 40.88 1.65 5.43-4.96 7.56-.94.23-1.71.41-.77.18-1.71.18-1.65 0-3.01-1.13-1.36-1.12-1.95-2.89v.12Zm8.85 53.8q0 3.78-2.65 6.43-2.66 2.66-6.43 2.66-3.78 0-6.38-2.66-2.59-2.65-2.59-6.43 0-3.77 2.59-6.43 2.6-2.65 6.38-2.65 3.77 0 6.43 2.65 2.65 2.66 2.65 6.43"></path><rect width="80.5" height="95.35" x="-40.25" y="-47.67" fill="none" rx="0" ry="0" transform="translate(431.13 50.23)"></rect><path fill="#fff" d="M50.3 169.08q3.07 0 6.37 1.3 3.31 1.3 6.37 3.42h-.11q3.06 2.12 4.72 5.78 1.65 3.66 1.65 8.38v16.17q0 9.55-6.37 14.27-3.07 2.25-6.32 3.49-3.24 1.23-6.31 1.23H24.58q-3.07 0-6.32-1.23-3.24-1.24-6.31-3.49-6.37-4.72-6.37-14.27v-7.79q0-5.55 6.96-5.55 7.08 0 7.08 5.55v6.84q0 3.07 1.77 5.55t6.14 2.48h19.82q4.37 0 6.14-2.48 1.77-2.48 1.77-5.55V188.9q0-2.95-1.77-5.48-1.77-2.54-6.14-2.54H24.58q-6.14 0-12.63-4.48-6.37-4.96-6.37-14.28v-14.04q0-4.72 1.65-8.32 1.65-3.6 4.72-5.84h-.12q3.07-2.01 6.37-3.31 3.31-1.3 6.38-1.3H50.3q3.07 0 6.37 1.3 3.31 1.3 6.37 3.31h-.11q3.06 2.24 4.72 5.84 1.65 3.6 1.65 8.32v6.96q0 5.54-7.08 5.54-6.96 0-6.96-5.54v-5.9q0-2.95-1.77-5.43-1.77-2.48-6.14-2.48H27.53q-4.37 0-6.14 2.48-1.77 2.48-1.77 5.43v12.03q0 3.07 1.77 5.49 1.77 2.42 6.14 2.42Z"></path><rect width="63.72" height="93.81" x="-31.86" y="-46.91" fill="none" rx="0" ry="0" transform="translate(37.94 176.72)"></rect><path fill="#fff" d="M122.28 218.29q0 5.66-6.96 5.66t-6.96-5.66V186.9l-26.44-50.27q-.7-1.53-.7-3.19 0-3.42 4.01-5.07h-.12q2.6-.94 4.13-.94 3.07 0 4.72 3.06l21.48 40.36 5.07-9.62q2.71-5.13 5.49-10.44 2.77-5.31 5.48-10.5 2.72-5.19 5.2-9.8.94-1.41 2.06-2.24 1.12-.82 2.77-.82 1.66 0 3.9.94h-.12q4.13 1.77 4.13 5.19 0 .71-.12 1.48-.12.76-.59 1.59-1.06 2.12-2.65 5.19-1.6 3.07-4.49 8.56-2.89 5.48-7.49 14.28-4.6 8.79-11.8 22.59Z"></path><rect width="68.2" height="96.52" x="-34.1" y="-48.26" fill="none" rx="0" ry="0" transform="translate(115.82 176.19)"></rect><path fill="#fff" d="M205.94 169.08q3.07 0 6.37 1.3 3.31 1.3 6.38 3.42h-.12q3.07 2.12 4.72 5.78t1.65 8.38v16.17q0 9.55-6.37 14.27-3.07 2.25-6.32 3.49-3.24 1.23-6.31 1.23h-25.72q-3.07 0-6.32-1.23-3.24-1.24-6.31-3.49-6.37-4.72-6.37-14.27v-7.79q0-5.55 6.96-5.55 7.08 0 7.08 5.55v6.84q0 3.07 1.77 5.55t6.14 2.48h19.82q4.37 0 6.14-2.48 1.77-2.48 1.77-5.55V188.9q0-2.95-1.77-5.48-1.77-2.54-6.14-2.54h-22.77q-6.14 0-12.63-4.48-6.37-4.96-6.37-14.28v-14.04q0-4.72 1.65-8.32 1.65-3.6 4.72-5.84h-.12q3.07-2.01 6.38-3.31 3.3-1.3 6.37-1.3h25.72q3.07 0 6.37 1.3 3.31 1.3 6.38 3.31h-.12q3.07 2.24 4.72 5.84 1.65 3.6 1.65 8.32v6.96q0 5.54-7.08 5.54-6.96 0-6.96-5.54v-5.9q0-2.95-1.77-5.43-1.77-2.48-6.14-2.48h-19.82q-4.37 0-6.14 2.48-1.77 2.48-1.77 5.43v12.03q0 3.07 1.77 5.49 1.77 2.42 6.14 2.42Z"></path><rect width="63.72" height="93.81" x="-31.86" y="-46.91" fill="none" rx="0" ry="0" transform="translate(193.58 176.72)"></rect><path fill="#fff" d="M274.97 218.29q0 5.66-7.08 5.66-6.96 0-6.96-5.66v-77.06h-20.65q-4.25 0-4.48-6.02 0-5.9 4.48-5.9h55.34q4.49 0 4.25 5.9 0 6.02-4.25 6.02h-20.65Z"></path><rect width="64.15" height="94.64" x="-32.08" y="-47.32" fill="none" rx="0" ry="0" transform="translate(268.38 177.13)"></rect><path fill="#fff" d="M317.92 223.12q-4.36 0-5.9-2.24-1.53-2.24-1.53-4.95v-79.54q0-2.71 1.53-4.89 1.54-2.19 5.9-2.19h41.07q4.36 0 4.6 5.9.24 6.02-4.6 6.02h-34.58v69.98h36.7q4.37 0 4.49 5.78.23 6.13-4.49 6.13Zm36.7-48.85q0 4.13-2.89 6.96-2.89 2.84-7.02 2.84-4.01 0-6.84-2.84-2.84-2.83-2.84-6.96t2.84-6.96q2.83-2.83 6.84-2.83 4.13 0 7.02 2.83 2.89 2.83 2.89 6.96"></path><rect width="55.19" height="93.81" x="-27.59" y="-46.91" fill="none" rx="0" ry="0" transform="translate(338.58 176.72)"></rect><path fill="#fff" d="M450.67 128.72q3.78 0 8.26 1.77 4.13 1.66 4.13 6.26v81.3q0 5.66-6.96 5.66t-6.96-5.66V157.4l-3.42-.36-4.72 15.34-14.16 47.2q-1.3 4.13-6.37 4.02-2.25-.12-3.9-1.18-1.65-1.07-2.24-3.07l-8.5-27.5q-2.59-8.14-5.19-16.57-2.59-8.44-5.66-18.71l-3.42.47v61.01q0 5.66-6.97 5.66-6.96 0-6.96-5.66v-81.3q0-4.49 4.13-6.26 4.37-1.77 8.38-1.65 1.77 0 3.66.47 1.89.48 3.54 1.36 1.65.89 2.95 2.24 1.3 1.36 2 3.13l18.53 63.13q2.01-6.96 4.25-15.1 2.24-8.15 4.6-16.52 2.36-8.38 4.66-16.58 2.3-8.2 4.31-15.28.71-1.66 2-2.95 1.3-1.3 2.95-2.19 1.66-.88 3.48-1.35 1.83-.48 3.6-.48"></path><rect width="85.43" height="94.99" x="-42.72" y="-47.49" fill="none" rx="0" ry="0" transform="translate(420.85 176.72)"></rect><path fill="#fff" d="M524.42 169.08q3.07 0 6.38 1.3 3.3 1.3 6.37 3.42h-.12q3.07 2.12 4.72 5.78t1.65 8.38v16.17q0 9.55-6.37 14.27-3.07 2.25-6.31 3.49-3.25 1.23-6.32 1.23H498.7q-3.07 0-6.31-1.23-3.25-1.24-6.32-3.49-6.37-4.72-6.37-14.27v-7.79q0-5.55 6.96-5.55 7.08 0 7.08 5.55v6.84q0 3.07 1.77 5.55t6.14 2.48h19.82q4.37 0 6.14-2.48 1.77-2.48 1.77-5.55V188.9q0-2.95-1.77-5.48-1.77-2.54-6.14-2.54H498.7q-6.14 0-12.63-4.48-6.37-4.96-6.37-14.28v-14.04q0-4.72 1.65-8.32 1.66-3.6 4.72-5.84h-.11q3.06-2.01 6.37-3.31 3.3-1.3 6.37-1.3h25.72q3.07 0 6.38 1.3 3.3 1.3 6.37 3.31h-.12q3.07 2.24 4.72 5.84 1.65 3.6 1.65 8.32v6.96q0 5.54-7.08 5.54-6.96 0-6.96-5.54v-5.9q0-2.95-1.77-5.43-1.77-2.48-6.14-2.48h-19.82q-4.37 0-6.14 2.48-1.77 2.48-1.77 5.43v12.03q0 3.07 1.77 5.49 1.77 2.42 6.14 2.42Z"></path><rect width="63.72" height="93.81" x="-31.86" y="-46.91" fill="none" rx="0" ry="0" transform="translate(512.06 176.72)"></rect></svg></svg>